<svg xmlns="http://www.w3.org/2000/svg" width="90" viewBox="0 0 90 43.5" height="43.5" version="1.0"><defs><clipPath id="a"><path d="M 4 17 L 20 17 L 20 32 L 4 32 Z M 4 17"/></clipPath><clipPath id="b"><path d="M 4.648438 17.773438 L 23.179688 18.210938 L 22.796875 34.519531 L 4.261719 34.082031 Z M 4.648438 17.773438"/></clipPath><clipPath id="c"><path d="M 4.648438 17.773438 L 23.179688 18.210938 L 22.796875 34.519531 L 4.261719 34.082031 Z M 4.648438 17.773438"/></clipPath><clipPath id="d"><path d="M 7 22 L 9 22 L 9 25 L 7 25 Z M 7 22"/></clipPath><clipPath id="e"><path d="M 4.648438 17.773438 L 23.179688 18.210938 L 22.796875 34.519531 L 4.261719 34.082031 Z M 4.648438 17.773438"/></clipPath><clipPath id="f"><path d="M 4.648438 17.773438 L 23.179688 18.210938 L 22.796875 34.519531 L 4.261719 34.082031 Z M 4.648438 17.773438"/></clipPath><clipPath id="g"><path d="M 14 22 L 17 22 L 17 25 L 14 25 Z M 14 22"/></clipPath><clipPath id="h"><path d="M 4.648438 17.773438 L 23.179688 18.210938 L 22.796875 34.519531 L 4.261719 34.082031 Z M 4.648438 17.773438"/></clipPath><clipPath id="i"><path d="M 4.648438 17.773438 L 23.179688 18.210938 L 22.796875 34.519531 L 4.261719 34.082031 Z M 4.648438 17.773438"/></clipPath><clipPath id="j"><path d="M 10 22 L 13 22 L 13 25 L 10 25 Z M 10 22"/></clipPath><clipPath id="k"><path d="M 4.648438 17.773438 L 23.179688 18.210938 L 22.796875 34.519531 L 4.261719 34.082031 Z M 4.648438 17.773438"/></clipPath><clipPath id="l"><path d="M 4.648438 17.773438 L 23.179688 18.210938 L 22.796875 34.519531 L 4.261719 34.082031 Z M 4.648438 17.773438"/></clipPath><clipPath id="m"><path d="M 10 21 L 23 21 L 23 35 L 10 35 Z M 10 21"/></clipPath><clipPath id="n"><path d="M 4.648438 17.773438 L 23.179688 18.210938 L 22.796875 34.519531 L 4.261719 34.082031 Z M 4.648438 17.773438"/></clipPath><clipPath id="o"><path d="M 4.648438 17.773438 L 23.179688 18.210938 L 22.796875 34.519531 L 4.261719 34.082031 Z M 4.648438 17.773438"/></clipPath><clipPath id="p"><path d="M 8 17 L 20 17 L 20 31 L 8 31 Z M 8 17"/></clipPath><clipPath id="q"><path d="M 7.316406 19.621094 L 17.964844 16.40625 L 21.179688 27.054688 L 10.53125 30.269531 Z M 7.316406 19.621094"/></clipPath><clipPath id="r"><path d="M 7.316406 19.621094 L 17.964844 16.40625 L 21.179688 27.054688 L 10.53125 30.269531 Z M 7.316406 19.621094"/></clipPath><clipPath id="s"><path d="M 11.664062 20.921875 L 16.851562 20.921875 L 16.851562 26.113281 L 11.664062 26.113281 Z M 11.664062 20.921875"/></clipPath></defs><g fill="#FFF"><g><g><path d="M 1.21875 -8.734375 L 1.21875 -8.984375 C 1.21875 -9.304688 1.269531 -9.519531 1.375 -9.625 C 1.476562 -9.726562 1.691406 -9.78125 2.015625 -9.78125 L 6.546875 -9.78125 C 7.390625 -9.78125 7.976562 -9.625 8.3125 -9.3125 C 8.65625 -9.007812 8.828125 -8.488281 8.828125 -7.75 C 8.828125 -7.195312 8.722656 -6.753906 8.515625 -6.421875 C 8.335938 -6.109375 7.9375 -5.765625 7.3125 -5.390625 L 2.9375 -2.71875 C 2.664062 -2.53125 2.53125 -2.351562 2.53125 -2.1875 C 2.53125 -1.945312 2.738281 -1.828125 3.15625 -1.828125 L 8.046875 -1.828125 C 8.359375 -1.828125 8.566406 -1.773438 8.671875 -1.671875 C 8.773438 -1.566406 8.828125 -1.359375 8.828125 -1.046875 L 8.828125 -0.78125 C 8.828125 -0.46875 8.773438 -0.257812 8.671875 -0.15625 C 8.566406 -0.0507812 8.359375 0 8.046875 0 L 2.9375 0 C 1.425781 0 0.671875 -0.671875 0.671875 -2.015625 C 0.671875 -2.984375 1.171875 -3.769531 2.171875 -4.375 L 6.5 -7.046875 C 6.820312 -7.265625 6.984375 -7.453125 6.984375 -7.609375 C 6.984375 -7.835938 6.769531 -7.953125 6.34375 -7.953125 L 2.015625 -7.953125 C 1.691406 -7.953125 1.476562 -8.003906 1.375 -8.109375 C 1.269531 -8.210938 1.21875 -8.421875 1.21875 -8.734375 Z M 1.21875 -8.734375" transform="translate(31.435 30.844)"/></g></g></g><g fill="#FFF"><g><g><path d="M 8.796875 -6.765625 L 8.796875 -2.9375 C 8.796875 -1.84375 8.457031 -1.039062 7.78125 -0.53125 C 7.113281 -0.03125 6.050781 0.21875 4.59375 0.21875 C 1.925781 0.21875 0.59375 -0.789062 0.59375 -2.8125 C 0.59375 -3.84375 0.921875 -4.597656 1.578125 -5.078125 C 2.242188 -5.554688 3.253906 -5.796875 4.609375 -5.796875 L 6.78125 -5.796875 L 6.78125 -6.765625 C 6.78125 -7.316406 6.597656 -7.703125 6.234375 -7.921875 C 5.878906 -8.148438 5.285156 -8.265625 4.453125 -8.265625 C 3.660156 -8.265625 2.972656 -8.203125 2.390625 -8.078125 C 2.097656 -8.023438 1.898438 -8.039062 1.796875 -8.125 C 1.703125 -8.21875 1.65625 -8.414062 1.65625 -8.71875 L 1.65625 -8.984375 C 1.65625 -9.273438 1.703125 -9.476562 1.796875 -9.59375 C 1.898438 -9.707031 2.085938 -9.789062 2.359375 -9.84375 C 3.054688 -9.945312 3.71875 -10 4.34375 -10 C 5.84375 -10 6.957031 -9.738281 7.6875 -9.21875 C 8.425781 -8.707031 8.796875 -7.890625 8.796875 -6.765625 Z M 6.78125 -3.03125 L 6.78125 -4.265625 L 4.609375 -4.265625 C 3.929688 -4.265625 3.429688 -4.15625 3.109375 -3.9375 C 2.785156 -3.71875 2.625 -3.359375 2.625 -2.859375 C 2.625 -2.367188 2.78125 -2.019531 3.09375 -1.8125 C 3.40625 -1.601562 3.894531 -1.5 4.5625 -1.5 C 5.363281 -1.5 5.929688 -1.609375 6.265625 -1.828125 C 6.609375 -2.054688 6.78125 -2.457031 6.78125 -3.03125 Z M 6.78125 -3.03125" transform="translate(40.936 30.844)"/></g></g></g><g fill="#FFF"><g><g><path d="M 1.125 3.0625 L 1.125 -5.796875 C 1.125 -7.179688 1.507812 -8.226562 2.28125 -8.9375 C 3.050781 -9.644531 4.164062 -10 5.625 -10 C 7.144531 -10 8.273438 -9.65625 9.015625 -8.96875 C 9.765625 -8.289062 10.140625 -7.234375 10.140625 -5.796875 L 10.140625 -4.078125 C 10.140625 -1.210938 8.769531 0.21875 6.03125 0.21875 C 4.632812 0.21875 3.671875 -0.207031 3.140625 -1.0625 L 3.140625 3.0625 C 3.140625 3.414062 3.078125 3.648438 2.953125 3.765625 C 2.835938 3.878906 2.601562 3.9375 2.25 3.9375 L 2.015625 3.9375 C 1.660156 3.9375 1.421875 3.878906 1.296875 3.765625 C 1.179688 3.648438 1.125 3.414062 1.125 3.0625 Z M 8.109375 -4.046875 L 8.109375 -5.734375 C 8.109375 -6.609375 7.929688 -7.222656 7.578125 -7.578125 C 7.222656 -7.929688 6.578125 -8.109375 5.640625 -8.109375 C 4.703125 -8.109375 4.050781 -7.929688 3.6875 -7.578125 C 3.320312 -7.222656 3.140625 -6.609375 3.140625 -5.734375 L 3.140625 -4.046875 C 3.140625 -3.191406 3.320312 -2.585938 3.6875 -2.234375 C 4.050781 -1.878906 4.703125 -1.703125 5.640625 -1.703125 C 6.578125 -1.703125 7.222656 -1.875 7.578125 -2.21875 C 7.929688 -2.5625 8.109375 -3.171875 8.109375 -4.046875 Z M 8.109375 -4.046875" transform="translate(50.596 30.844)"/></g></g></g><g fill="#FFF"><g><g><path d="M 0.28125 -8.578125 L 0.28125 -8.78125 C 0.28125 -9.050781 0.320312 -9.238281 0.40625 -9.34375 C 0.5 -9.445312 0.679688 -9.523438 0.953125 -9.578125 L 1.984375 -9.78125 L 2.234375 -11.640625 C 2.265625 -11.921875 2.332031 -12.109375 2.4375 -12.203125 C 2.550781 -12.296875 2.75 -12.34375 3.03125 -12.34375 L 3.296875 -12.34375 C 3.585938 -12.34375 3.773438 -12.296875 3.859375 -12.203125 C 3.953125 -12.109375 4 -11.921875 4 -11.640625 L 4 -9.78125 L 6.765625 -9.78125 C 7.085938 -9.78125 7.304688 -9.726562 7.421875 -9.625 C 7.535156 -9.519531 7.59375 -9.296875 7.59375 -8.953125 L 7.59375 -8.71875 C 7.59375 -8.375 7.535156 -8.148438 7.421875 -8.046875 C 7.304688 -7.941406 7.085938 -7.890625 6.765625 -7.890625 L 4 -7.890625 L 4 -3.40625 C 4 -2.269531 4.515625 -1.703125 5.546875 -1.703125 C 6.128906 -1.703125 6.660156 -1.757812 7.140625 -1.875 C 7.460938 -1.9375 7.675781 -1.921875 7.78125 -1.828125 C 7.894531 -1.742188 7.953125 -1.53125 7.953125 -1.1875 L 7.953125 -0.953125 C 7.953125 -0.617188 7.894531 -0.382812 7.78125 -0.25 C 7.675781 -0.125 7.460938 -0.0234375 7.140625 0.046875 C 6.535156 0.148438 6.003906 0.203125 5.546875 0.203125 C 3.171875 0.203125 1.984375 -1.007812 1.984375 -3.4375 L 1.984375 -7.890625 L 0.96875 -7.890625 C 0.6875 -7.890625 0.5 -7.929688 0.40625 -8.015625 C 0.320312 -8.109375 0.28125 -8.296875 0.28125 -8.578125 Z M 0.28125 -8.578125" transform="translate(61.596 30.844)"/></g></g></g><g fill="#FFF"><g><g><path d="M 3.09375 -6.375 L 3.09375 -0.890625 C 3.09375 -0.535156 3.03125 -0.296875 2.90625 -0.171875 C 2.789062 -0.0546875 2.554688 0 2.203125 0 L 1.953125 0 C 1.597656 0 1.359375 -0.0546875 1.234375 -0.171875 C 1.117188 -0.296875 1.0625 -0.535156 1.0625 -0.890625 L 1.0625 -6.5 C 1.0625 -8.832031 2.304688 -10 4.796875 -10 C 5.015625 -10 5.144531 -9.992188 5.1875 -9.984375 C 5.507812 -9.941406 5.726562 -9.859375 5.84375 -9.734375 C 5.957031 -9.617188 6.015625 -9.390625 6.015625 -9.046875 L 6.015625 -8.78125 C 6.015625 -8.445312 5.960938 -8.234375 5.859375 -8.140625 C 5.753906 -8.046875 5.53125 -8.023438 5.1875 -8.078125 C 5.144531 -8.097656 5.015625 -8.109375 4.796875 -8.109375 C 4.160156 -8.109375 3.71875 -7.972656 3.46875 -7.703125 C 3.21875 -7.441406 3.09375 -7 3.09375 -6.375 Z M 3.09375 -6.375" transform="translate(69.934 30.844)"/></g></g></g><g fill="#FFF"><g><g><path d="M 9.421875 -5.921875 C 9.421875 -5.867188 9.410156 -5.578125 9.390625 -5.046875 C 9.347656 -4.679688 9.257812 -4.4375 9.125 -4.3125 C 9 -4.195312 8.75 -4.140625 8.375 -4.140625 L 2.90625 -4.140625 L 2.90625 -3.703125 C 2.90625 -2.984375 3.125 -2.46875 3.5625 -2.15625 C 4 -1.851562 4.71875 -1.703125 5.71875 -1.703125 C 6.570312 -1.703125 7.425781 -1.804688 8.28125 -2.015625 C 8.59375 -2.085938 8.804688 -2.070312 8.921875 -1.96875 C 9.035156 -1.875 9.09375 -1.660156 9.09375 -1.328125 L 9.09375 -1.0625 C 9.09375 -0.738281 9.039062 -0.519531 8.9375 -0.40625 C 8.84375 -0.289062 8.625 -0.1875 8.28125 -0.09375 C 7.53125 0.113281 6.675781 0.21875 5.71875 0.21875 C 4.050781 0.21875 2.828125 -0.117188 2.046875 -0.796875 C 1.265625 -1.472656 0.875 -2.539062 0.875 -4 L 0.875 -5.71875 C 0.875 -8.570312 2.332031 -10 5.25 -10 C 6.613281 -10 7.648438 -9.648438 8.359375 -8.953125 C 9.066406 -8.265625 9.421875 -7.253906 9.421875 -5.921875 Z M 2.90625 -6.296875 L 2.90625 -5.796875 L 7.515625 -5.796875 L 7.515625 -6.296875 C 7.515625 -7.597656 6.738281 -8.25 5.1875 -8.25 C 3.664062 -8.25 2.90625 -7.597656 2.90625 -6.296875 Z M 2.90625 -6.296875" transform="translate(76.321 30.844)"/></g></g></g><path fill="#FFF" d="M 15.621094 13.046875 C 8.867188 13.046875 3.386719 18.523438 3.386719 25.28125 C 3.386719 32.039062 8.867188 37.515625 15.621094 37.515625 C 22.378906 37.515625 27.855469 32.039062 27.855469 25.28125 C 27.855469 18.523438 22.378906 13.046875 15.621094 13.046875"/><g clip-path="url(#a)"><g clip-path="url(#b)"><g clip-path="url(#c)"><path fill="#00C873" d="M 19.007812 22.890625 C 19.070312 20.261719 16.980469 18.070312 14.351562 18.007812 L 9.417969 17.890625 C 6.789062 17.828125 4.597656 19.917969 4.535156 22.550781 L 4.503906 23.851562 C 4.457031 25.90625 5.71875 27.753906 7.644531 28.453125 L 7.832031 28.519531 L 7.730469 28.691406 C 7.460938 29.132812 7.089844 29.828125 6.601562 30.8125 C 6.542969 30.929688 6.566406 31.074219 6.65625 31.171875 C 6.746094 31.265625 6.894531 31.296875 7.011719 31.246094 L 12.660156 28.820312 L 14.09375 28.855469 C 16.722656 28.917969 18.914062 26.828125 18.976562 24.195312 Z M 18.34375 24.179688 C 18.289062 26.460938 16.390625 28.277344 14.109375 28.222656 L 12.605469 28.1875 C 12.558594 28.1875 12.511719 28.195312 12.472656 28.210938 L 7.558594 30.320312 L 7.78125 29.90625 C 7.980469 29.53125 8.34375 28.863281 8.515625 28.652344 L 8.535156 28.625 L 8.5625 28.609375 C 8.648438 28.5625 8.703125 28.480469 8.71875 28.382812 C 8.742188 28.21875 8.632812 28.058594 8.46875 28.027344 C 6.492188 27.632812 5.089844 25.882812 5.136719 23.867188 L 5.167969 22.566406 C 5.222656 20.28125 7.121094 18.46875 9.402344 18.523438 L 14.335938 18.640625 C 16.617188 18.691406 18.425781 20.59375 18.375 22.875 Z M 18.34375 24.179688"/></g></g></g><g clip-path="url(#d)"><g clip-path="url(#e)"><g clip-path="url(#f)"><path fill="#00C873" d="M 8.046875 22.496094 C 7.550781 22.484375 7.136719 22.878906 7.125 23.371094 C 7.113281 23.867188 7.507812 24.28125 8.003906 24.292969 C 8.5 24.304688 8.914062 23.910156 8.925781 23.414062 C 8.9375 22.921875 8.542969 22.507812 8.046875 22.496094 Z M 8.046875 22.496094"/></g></g></g><g clip-path="url(#g)"><g clip-path="url(#h)"><g clip-path="url(#i)"><path fill="#00C873" d="M 15.503906 22.671875 C 15.007812 22.660156 14.59375 23.054688 14.582031 23.550781 C 14.570312 24.042969 14.964844 24.457031 15.460938 24.46875 C 15.957031 24.480469 16.367188 24.085938 16.378906 23.589844 C 16.390625 23.097656 15.996094 22.683594 15.503906 22.671875 Z M 15.503906 22.671875"/></g></g></g><g clip-path="url(#j)"><g clip-path="url(#k)"><g clip-path="url(#l)"><path fill="#00C873" d="M 11.773438 22.582031 C 11.277344 22.570312 10.867188 22.964844 10.855469 23.460938 C 10.84375 23.957031 11.238281 24.371094 11.730469 24.382812 C 12.226562 24.394531 12.640625 24 12.652344 23.503906 C 12.664062 23.007812 12.269531 22.59375 11.773438 22.582031 Z M 11.773438 22.582031"/></g></g></g><g clip-path="url(#m)"><g clip-path="url(#n)"><g clip-path="url(#o)"><path fill="#00C873" d="M 10.769531 30.191406 L 10.109375 30.472656 C 10.925781 31.199219 11.984375 31.648438 13.15625 31.675781 L 14.589844 31.710938 L 20.117188 34.398438 C 20.234375 34.457031 20.378906 34.433594 20.476562 34.34375 C 20.570312 34.25 20.597656 34.109375 20.546875 33.988281 C 20.105469 32.980469 19.769531 32.269531 19.519531 31.816406 L 19.425781 31.640625 L 19.617188 31.578125 C 21.574219 30.972656 22.921875 29.1875 22.96875 27.132812 L 23 25.832031 C 23.054688 23.503906 21.429688 21.527344 19.234375 21.058594 C 19.3125 21.285156 19.375 21.523438 19.421875 21.761719 C 19.425781 21.765625 19.425781 21.765625 19.425781 21.765625 C 19.425781 21.765625 19.425781 21.765625 19.421875 21.761719 C 19.496094 22.132812 19.53125 22.515625 19.523438 22.90625 L 19.492188 24.207031 C 19.421875 27.125 16.996094 29.4375 14.082031 29.371094 L 12.757812 29.339844 M 18.546875 31.460938 L 18.546875 31.460938"/></g></g></g><path fill="#FFF" d="M 14.148438 17.703125 C 11.078125 17.703125 8.585938 20.195312 8.585938 23.265625 C 8.585938 26.335938 11.078125 28.828125 14.148438 28.828125 C 17.21875 28.828125 19.710938 26.335938 19.710938 23.265625 C 19.710938 20.195312 17.21875 17.703125 14.148438 17.703125"/><path fill="#FFF" d="M 9.59375 17.21875 C 6.523438 17.21875 4.03125 19.871094 4.03125 23.148438 C 4.03125 26.425781 6.523438 29.082031 9.59375 29.082031 C 12.664062 29.082031 15.152344 26.425781 15.152344 23.148438 C 15.152344 19.871094 12.664062 17.21875 9.59375 17.21875"/><path fill="#FFF" d="M 13.972656 17.460938 C 10.898438 17.460938 8.410156 19.949219 8.410156 23.023438 C 8.410156 26.09375 10.898438 28.582031 13.972656 28.582031 C 17.042969 28.582031 19.53125 26.09375 19.53125 23.023438 C 19.53125 19.949219 17.042969 17.460938 13.972656 17.460938"/><path fill="#FFF" d="M 8.433594 24.5625 C 6.792969 24.5625 5.464844 25.890625 5.464844 27.53125 C 5.464844 29.167969 6.792969 30.496094 8.433594 30.496094 C 10.070312 30.496094 11.398438 29.167969 11.398438 27.53125 C 11.398438 25.890625 10.070312 24.5625 8.433594 24.5625"/><path fill="#FFF" d="M 7.859375 26.136719 C 6.222656 26.136719 4.894531 27.464844 4.894531 29.101562 C 4.894531 30.738281 6.222656 32.066406 7.859375 32.066406 C 9.5 32.066406 10.824219 30.738281 10.824219 29.101562 C 10.824219 27.464844 9.5 26.136719 7.859375 26.136719"/><g clip-path="url(#p)"><g clip-path="url(#q)"><g clip-path="url(#r)"><path fill="#00C873" d="M 12.640625 18.015625 C 9.726562 18.894531 8.074219 21.980469 8.953125 24.894531 C 9.269531 25.949219 9.902344 26.808594 10.683594 27.476562 L 10.539062 30.285156 L 13.125 28.636719 C 14 28.820312 14.917969 28.855469 15.832031 28.582031 C 18.746094 27.699219 20.398438 24.617188 19.519531 21.703125 C 18.636719 18.789062 15.554688 17.132812 12.640625 18.015625 Z M 12.886719 18.828125 C 15.359375 18.082031 17.957031 19.472656 18.707031 21.945312 C 19.453125 24.421875 18.058594 27.019531 15.585938 27.769531 C 14.738281 28.023438 13.882812 28.023438 13.078125 27.816406 L 12.902344 27.769531 L 11.46875 28.683594 L 11.550781 27.121094 L 11.375 26.984375 C 10.632812 26.410156 10.058594 25.613281 9.765625 24.648438 C 9.019531 22.175781 10.414062 19.574219 12.886719 18.828125 Z M 11.394531 21.050781 C 11.304688 21.078125 11.164062 21.164062 11.078125 21.355469 C 10.996094 21.542969 10.746094 22.015625 10.96875 22.761719 C 11.191406 23.5 11.910156 24.066406 12.011719 24.144531 C 12.113281 24.226562 13.488281 25.46875 15.089844 25.699219 C 15.46875 25.753906 15.757812 25.769531 15.984375 25.777344 C 16.355469 25.789062 16.652344 25.683594 16.882812 25.570312 C 17.140625 25.445312 17.601562 24.957031 17.613281 24.566406 C 17.621094 24.179688 17.53125 23.878906 17.476562 23.824219 C 17.425781 23.773438 17.316406 23.761719 17.15625 23.730469 C 16.992188 23.699219 16.195312 23.539062 16.050781 23.53125 C 15.910156 23.515625 15.808594 23.523438 15.757812 23.699219 C 15.710938 23.882812 15.546875 24.300781 15.496094 24.425781 C 15.441406 24.550781 15.367188 24.585938 15.203125 24.554688 C 15.039062 24.519531 14.539062 24.5 13.851562 24.144531 C 13.3125 23.871094 12.882812 23.464844 12.757812 23.335938 C 12.628906 23.207031 12.679688 23.105469 12.726562 23.011719 C 12.769531 22.921875 12.8125 22.792969 12.855469 22.683594 C 12.898438 22.574219 12.902344 22.503906 12.917969 22.390625 C 12.9375 22.273438 12.886719 22.191406 12.828125 22.128906 C 12.769531 22.0625 12.265625 21.40625 12.058594 21.136719 C 11.855469 20.882812 11.75 20.953125 11.664062 20.976562 C 11.582031 20.996094 11.488281 21.023438 11.394531 21.050781 Z M 11.394531 21.050781"/></g></g></g><path fill="#FFF" d="M 14.058594 19.277344 C 11.808594 19.277344 9.980469 21.101562 9.980469 23.355469 C 9.980469 25.605469 11.808594 27.433594 14.058594 27.433594 C 16.3125 27.433594 18.136719 25.605469 18.136719 23.355469 C 18.136719 21.101562 16.3125 19.277344 14.058594 19.277344"/><g clip-path="url(#s)"><path fill="#00C873" d="M 11.769531 26.113281 L 16.816406 26.070312 C 16.835938 26.070312 16.851562 26.046875 16.851562 26.019531 L 16.851562 25.085938 C 16.851562 25.058594 16.835938 25.035156 16.816406 25.035156 L 15.992188 25.035156 L 15.992188 25.03125 L 13.398438 25.03125 C 13.347656 25.019531 13.308594 24.960938 13.304688 24.882812 L 13.773438 23.90625 L 13.796875 23.863281 L 14.429688 22.617188 C 14.449219 22.582031 14.433594 22.53125 14.402344 22.53125 L 13.5 22.53125 C 13.488281 22.53125 13.480469 22.539062 13.472656 22.554688 L 13.285156 22.921875 L 11.722656 25.980469 C 11.695312 26.035156 11.722656 26.113281 11.769531 26.113281 Z M 16.789062 21.054688 L 15.230469 24.117188 L 15.042969 24.484375 C 15.035156 24.496094 15.023438 24.503906 15.011719 24.503906 L 14.113281 24.503906 C 14.082031 24.503906 14.066406 24.457031 14.082031 24.421875 L 14.71875 23.171875 L 14.742188 23.128906 L 15.210938 22.152344 C 15.207031 22.078125 15.164062 22.015625 15.113281 22.003906 L 12.519531 22.003906 L 12.519531 22 L 11.699219 22 C 11.679688 22 11.664062 21.976562 11.664062 21.949219 L 11.664062 21.019531 C 11.664062 20.988281 11.679688 20.964844 11.699219 20.964844 L 16.742188 20.925781 C 16.792969 20.921875 16.820312 21 16.789062 21.054688"/></g></svg>