<svg xmlns="http://www.w3.org/2000/svg" width="180" viewBox="0 0 180 87" height="87" version="1.0"><defs><clipPath id="a"><path d="M 8 28 L 37 28 L 37 55 L 8 55 Z M 8 28"/></clipPath><clipPath id="b"><path d="M 8.371094 28.195312 L 45.109375 29.0625 L 44.351562 61.304688 L 7.609375 60.4375 Z M 8.371094 28.195312"/></clipPath><clipPath id="c"><path d="M 8.371094 28.195312 L 45.109375 29.0625 L 44.351562 61.304688 L 7.609375 60.4375 Z M 8.371094 28.195312"/></clipPath><clipPath id="d"><path d="M 13 37 L 17 37 L 17 42 L 13 42 Z M 13 37"/></clipPath><clipPath id="e"><path d="M 8.371094 28.195312 L 45.109375 29.0625 L 44.351562 61.304688 L 7.609375 60.4375 Z M 8.371094 28.195312"/></clipPath><clipPath id="f"><path d="M 8.371094 28.195312 L 45.109375 29.0625 L 44.351562 61.304688 L 7.609375 60.4375 Z M 8.371094 28.195312"/></clipPath><clipPath id="g"><path d="M 28 37 L 32 37 L 32 42 L 28 42 Z M 28 37"/></clipPath><clipPath id="h"><path d="M 8.371094 28.195312 L 45.109375 29.0625 L 44.351562 61.304688 L 7.609375 60.4375 Z M 8.371094 28.195312"/></clipPath><clipPath id="i"><path d="M 8.371094 28.195312 L 45.109375 29.0625 L 44.351562 61.304688 L 7.609375 60.4375 Z M 8.371094 28.195312"/></clipPath><clipPath id="j"><path d="M 20 37 L 25 37 L 25 42 L 20 42 Z M 20 37"/></clipPath><clipPath id="k"><path d="M 8.371094 28.195312 L 45.109375 29.0625 L 44.351562 61.304688 L 7.609375 60.4375 Z M 8.371094 28.195312"/></clipPath><clipPath id="l"><path d="M 8.371094 28.195312 L 45.109375 29.0625 L 44.351562 61.304688 L 7.609375 60.4375 Z M 8.371094 28.195312"/></clipPath><clipPath id="m"><path d="M 19 34 L 45 34 L 45 62 L 19 62 Z M 19 34"/></clipPath><clipPath id="n"><path d="M 8.371094 28.195312 L 45.109375 29.0625 L 44.351562 61.304688 L 7.609375 60.4375 Z M 8.371094 28.195312"/></clipPath><clipPath id="o"><path d="M 8.371094 28.195312 L 45.109375 29.0625 L 44.351562 61.304688 L 7.609375 60.4375 Z M 8.371094 28.195312"/></clipPath><clipPath id="p"><path d="M 16 28 L 39 28 L 39 54 L 16 54 Z M 16 28"/></clipPath><clipPath id="q"><path d="M 13.886719 32.273438 L 34.707031 25.984375 L 40.996094 46.804688 L 20.175781 53.09375 Z M 13.886719 32.273438"/></clipPath><clipPath id="r"><path d="M 13.886719 32.273438 L 34.707031 25.984375 L 40.996094 46.804688 L 20.175781 53.09375 Z M 13.886719 32.273438"/></clipPath><clipPath id="s"><path d="M 22.199219 34.472656 L 32.699219 34.472656 L 32.699219 44.222656 L 22.199219 44.222656 Z M 22.199219 34.472656"/></clipPath></defs><g fill="#123D2B"><g><g><path d="M 2.46875 -17.671875 L 2.46875 -18.1875 C 2.46875 -18.820312 2.570312 -19.242188 2.78125 -19.453125 C 3 -19.671875 3.425781 -19.78125 4.0625 -19.78125 L 13.234375 -19.78125 C 14.941406 -19.78125 16.140625 -19.46875 16.828125 -18.84375 C 17.515625 -18.21875 17.859375 -17.160156 17.859375 -15.671875 C 17.859375 -14.554688 17.644531 -13.664062 17.21875 -13 C 16.851562 -12.363281 16.046875 -11.660156 14.796875 -10.890625 L 5.9375 -5.5 C 5.382812 -5.125 5.109375 -4.765625 5.109375 -4.421875 C 5.109375 -3.941406 5.53125 -3.703125 6.375 -3.703125 L 16.265625 -3.703125 C 16.898438 -3.703125 17.320312 -3.597656 17.53125 -3.390625 C 17.75 -3.179688 17.859375 -2.753906 17.859375 -2.109375 L 17.859375 -1.59375 C 17.859375 -0.957031 17.75 -0.53125 17.53125 -0.3125 C 17.320312 -0.101562 16.898438 0 16.265625 0 L 5.9375 0 C 2.882812 0 1.359375 -1.351562 1.359375 -4.0625 C 1.359375 -6.03125 2.367188 -7.628906 4.390625 -8.859375 L 13.15625 -14.234375 C 13.789062 -14.679688 14.109375 -15.066406 14.109375 -15.390625 C 14.109375 -15.835938 13.6875 -16.0625 12.84375 -16.0625 L 4.0625 -16.0625 C 3.425781 -16.0625 3 -16.164062 2.78125 -16.375 C 2.570312 -16.59375 2.46875 -17.023438 2.46875 -17.671875 Z M 2.46875 -17.671875" transform="translate(62.562 54.4)"/></g></g></g><g fill="#123D2B"><g><g><path d="M 17.78125 -13.671875 L 17.78125 -5.9375 C 17.78125 -3.726562 17.101562 -2.113281 15.75 -1.09375 C 14.394531 -0.0703125 12.242188 0.4375 9.296875 0.4375 C 3.898438 0.4375 1.203125 -1.609375 1.203125 -5.703125 C 1.203125 -7.773438 1.867188 -9.296875 3.203125 -10.265625 C 4.546875 -11.234375 6.585938 -11.71875 9.328125 -11.71875 L 13.71875 -11.71875 L 13.71875 -13.671875 C 13.71875 -14.796875 13.351562 -15.582031 12.625 -16.03125 C 11.894531 -16.476562 10.691406 -16.703125 9.015625 -16.703125 C 7.421875 -16.703125 6.023438 -16.582031 4.828125 -16.34375 C 4.242188 -16.238281 3.847656 -16.269531 3.640625 -16.4375 C 3.441406 -16.613281 3.34375 -17.007812 3.34375 -17.625 L 3.34375 -18.1875 C 3.34375 -18.769531 3.441406 -19.171875 3.640625 -19.390625 C 3.847656 -19.617188 4.226562 -19.785156 4.78125 -19.890625 C 6.1875 -20.109375 7.515625 -20.21875 8.765625 -20.21875 C 11.796875 -20.21875 14.054688 -19.695312 15.546875 -18.65625 C 17.035156 -17.625 17.78125 -15.960938 17.78125 -13.671875 Z M 13.71875 -6.140625 L 13.71875 -8.609375 L 9.328125 -8.609375 C 7.941406 -8.609375 6.921875 -8.390625 6.265625 -7.953125 C 5.617188 -7.515625 5.296875 -6.789062 5.296875 -5.78125 C 5.296875 -4.800781 5.613281 -4.097656 6.25 -3.671875 C 6.894531 -3.242188 7.882812 -3.03125 9.21875 -3.03125 C 10.832031 -3.03125 11.984375 -3.253906 12.671875 -3.703125 C 13.367188 -4.160156 13.71875 -4.972656 13.71875 -6.140625 Z M 13.71875 -6.140625" transform="translate(81.784 54.4)"/></g></g></g><g fill="#123D2B"><g><g><path d="M 2.265625 6.1875 L 2.265625 -11.71875 C 2.265625 -14.507812 3.039062 -16.625 4.59375 -18.0625 C 6.15625 -19.5 8.410156 -20.21875 11.359375 -20.21875 C 14.441406 -20.21875 16.734375 -19.523438 18.234375 -18.140625 C 19.742188 -16.753906 20.5 -14.613281 20.5 -11.71875 L 20.5 -8.25 C 20.5 -2.457031 17.734375 0.4375 12.203125 0.4375 C 9.378906 0.4375 7.425781 -0.425781 6.34375 -2.15625 L 6.34375 6.1875 C 6.34375 6.894531 6.222656 7.367188 5.984375 7.609375 C 5.742188 7.847656 5.265625 7.96875 4.546875 7.96875 L 4.0625 7.96875 C 3.34375 7.96875 2.863281 7.847656 2.625 7.609375 C 2.382812 7.367188 2.265625 6.894531 2.265625 6.1875 Z M 16.390625 -8.171875 L 16.390625 -11.609375 C 16.390625 -13.359375 16.03125 -14.59375 15.3125 -15.3125 C 14.59375 -16.03125 13.289062 -16.390625 11.40625 -16.390625 C 9.519531 -16.390625 8.203125 -16.03125 7.453125 -15.3125 C 6.710938 -14.59375 6.34375 -13.359375 6.34375 -11.609375 L 6.34375 -8.171875 C 6.34375 -6.441406 6.710938 -5.21875 7.453125 -4.5 C 8.203125 -3.78125 9.519531 -3.421875 11.40625 -3.421875 C 13.289062 -3.421875 14.59375 -3.773438 15.3125 -4.484375 C 16.03125 -5.191406 16.390625 -6.421875 16.390625 -8.171875 Z M 16.390625 -8.171875" transform="translate(101.324 54.4)"/></g></g></g><g fill="#123D2B"><g><g><path d="M 0.5625 -17.34375 L 0.5625 -17.75 C 0.5625 -18.300781 0.648438 -18.679688 0.828125 -18.890625 C 1.015625 -19.109375 1.375 -19.269531 1.90625 -19.375 L 4.03125 -19.78125 L 4.5 -23.53125 C 4.582031 -24.113281 4.726562 -24.5 4.9375 -24.6875 C 5.15625 -24.875 5.554688 -24.96875 6.140625 -24.96875 L 6.65625 -24.96875 C 7.238281 -24.96875 7.625 -24.875 7.8125 -24.6875 C 8 -24.5 8.09375 -24.113281 8.09375 -23.53125 L 8.09375 -19.78125 L 13.671875 -19.78125 C 14.335938 -19.78125 14.785156 -19.671875 15.015625 -19.453125 C 15.242188 -19.242188 15.359375 -18.796875 15.359375 -18.109375 L 15.359375 -17.625 C 15.359375 -16.9375 15.242188 -16.484375 15.015625 -16.265625 C 14.785156 -16.054688 14.335938 -15.953125 13.671875 -15.953125 L 8.09375 -15.953125 L 8.09375 -6.890625 C 8.09375 -4.578125 9.128906 -3.421875 11.203125 -3.421875 C 12.398438 -3.421875 13.476562 -3.539062 14.4375 -3.78125 C 15.101562 -3.914062 15.539062 -3.890625 15.75 -3.703125 C 15.957031 -3.515625 16.0625 -3.078125 16.0625 -2.390625 L 16.0625 -1.90625 C 16.0625 -1.25 15.957031 -0.785156 15.75 -0.515625 C 15.539062 -0.253906 15.101562 -0.0546875 14.4375 0.078125 C 13.207031 0.296875 12.128906 0.40625 11.203125 0.40625 C 6.421875 0.40625 4.03125 -2.039062 4.03125 -6.9375 L 4.03125 -15.953125 L 1.953125 -15.953125 C 1.390625 -15.953125 1.015625 -16.046875 0.828125 -16.234375 C 0.648438 -16.421875 0.5625 -16.789062 0.5625 -17.34375 Z M 0.5625 -17.34375" transform="translate(123.577 54.4)"/></g></g></g><g fill="#123D2B"><g><g><path d="M 6.265625 -12.875 L 6.265625 -1.796875 C 6.265625 -1.078125 6.144531 -0.597656 5.90625 -0.359375 C 5.664062 -0.117188 5.1875 0 4.46875 0 L 3.953125 0 C 3.234375 0 2.753906 -0.117188 2.515625 -0.359375 C 2.273438 -0.597656 2.15625 -1.078125 2.15625 -1.796875 L 2.15625 -13.15625 C 2.15625 -17.863281 4.664062 -20.21875 9.6875 -20.21875 C 10.144531 -20.21875 10.410156 -20.203125 10.484375 -20.171875 C 11.148438 -20.097656 11.59375 -19.941406 11.8125 -19.703125 C 12.039062 -19.460938 12.15625 -18.992188 12.15625 -18.296875 L 12.15625 -17.75 C 12.15625 -17.082031 12.050781 -16.65625 11.84375 -16.46875 C 11.632812 -16.28125 11.179688 -16.238281 10.484375 -16.34375 C 10.410156 -16.375 10.144531 -16.390625 9.6875 -16.390625 C 8.414062 -16.390625 7.523438 -16.125 7.015625 -15.59375 C 6.515625 -15.0625 6.265625 -14.15625 6.265625 -12.875 Z M 6.265625 -12.875" transform="translate(140.445 54.4)"/></g></g></g><g fill="#123D2B"><g><g><path d="M 19.0625 -11.96875 C 19.0625 -11.851562 19.035156 -11.265625 18.984375 -10.203125 C 18.898438 -9.460938 18.722656 -8.972656 18.453125 -8.734375 C 18.191406 -8.492188 17.691406 -8.375 16.953125 -8.375 L 5.859375 -8.375 L 5.859375 -7.5 C 5.859375 -6.03125 6.300781 -4.984375 7.1875 -4.359375 C 8.082031 -3.734375 9.539062 -3.421875 11.5625 -3.421875 C 13.289062 -3.421875 15.019531 -3.632812 16.75 -4.0625 C 17.382812 -4.226562 17.8125 -4.207031 18.03125 -4 C 18.257812 -3.800781 18.375 -3.359375 18.375 -2.671875 L 18.375 -2.15625 C 18.375 -1.488281 18.273438 -1.039062 18.078125 -0.8125 C 17.878906 -0.59375 17.4375 -0.390625 16.75 -0.203125 C 15.226562 0.222656 13.5 0.4375 11.5625 0.4375 C 8.1875 0.4375 5.707031 -0.242188 4.125 -1.609375 C 2.539062 -2.984375 1.75 -5.144531 1.75 -8.09375 L 1.75 -11.5625 C 1.75 -17.332031 4.703125 -20.21875 10.609375 -20.21875 C 13.367188 -20.21875 15.46875 -19.519531 16.90625 -18.125 C 18.34375 -16.726562 19.0625 -14.675781 19.0625 -11.96875 Z M 5.859375 -12.71875 L 5.859375 -11.71875 L 15.1875 -11.71875 L 15.1875 -12.71875 C 15.1875 -15.351562 13.617188 -16.671875 10.484375 -16.671875 C 7.398438 -16.671875 5.859375 -15.351562 5.859375 -12.71875 Z M 5.859375 -12.71875" transform="translate(153.366 54.4)"/></g></g></g><path fill="#00C873" d="M 30.570312 18.636719 C 16.902344 18.636719 5.820312 29.714844 5.820312 43.386719 C 5.820312 57.054688 16.902344 68.136719 30.570312 68.136719 C 44.238281 68.136719 55.320312 57.054688 55.320312 43.386719 C 55.320312 29.714844 44.238281 18.636719 30.570312 18.636719"/><g clip-path="url(#a)"><g clip-path="url(#b)"><g clip-path="url(#c)"><path fill="#FFF" d="M 36.835938 38.316406 C 36.960938 33.117188 32.816406 28.78125 27.605469 28.660156 L 17.824219 28.429688 C 12.613281 28.304688 8.269531 32.4375 8.148438 37.640625 L 8.085938 40.214844 C 7.992188 44.273438 10.492188 47.929688 14.3125 49.308594 L 14.6875 49.441406 L 14.480469 49.78125 C 13.945312 50.65625 13.214844 52.027344 12.246094 53.976562 C 12.128906 54.210938 12.171875 54.496094 12.355469 54.683594 C 12.53125 54.871094 12.824219 54.929688 13.054688 54.828125 L 24.25 50.039062 L 27.097656 50.105469 C 32.3125 50.230469 36.652344 46.097656 36.777344 40.894531 Z M 35.519531 40.863281 C 35.414062 45.378906 31.648438 48.960938 27.128906 48.855469 L 24.144531 48.785156 C 24.054688 48.78125 23.964844 48.800781 23.882812 48.835938 L 14.144531 53 L 14.582031 52.183594 C 14.980469 51.4375 15.699219 50.125 16.039062 49.703125 L 16.078125 49.652344 L 16.132812 49.625 C 16.300781 49.527344 16.410156 49.363281 16.441406 49.175781 C 16.492188 48.84375 16.273438 48.53125 15.945312 48.464844 C 12.023438 47.6875 9.246094 44.230469 9.34375 40.246094 L 9.402344 37.667969 C 9.507812 33.15625 13.273438 29.574219 17.796875 29.679688 L 27.574219 29.910156 C 32.097656 30.015625 35.6875 33.777344 35.582031 38.289062 Z M 35.519531 40.863281"/></g></g></g><g clip-path="url(#d)"><g clip-path="url(#e)"><g clip-path="url(#f)"><path fill="#FFF" d="M 15.109375 37.53125 C 14.125 37.511719 13.308594 38.289062 13.285156 39.265625 C 13.261719 40.246094 14.042969 41.0625 15.023438 41.085938 C 16.007812 41.109375 16.824219 40.332031 16.847656 39.351562 C 16.871094 38.371094 16.089844 37.554688 15.109375 37.53125 Z M 15.109375 37.53125"/></g></g></g><g clip-path="url(#g)"><g clip-path="url(#h)"><g clip-path="url(#i)"><path fill="#FFF" d="M 29.890625 37.882812 C 28.90625 37.859375 28.089844 38.636719 28.066406 39.617188 C 28.042969 40.597656 28.824219 41.414062 29.804688 41.433594 C 30.789062 41.457031 31.605469 40.679688 31.628906 39.699219 C 31.652344 38.722656 30.871094 37.90625 29.890625 37.882812 Z M 29.890625 37.882812"/></g></g></g><g clip-path="url(#j)"><g clip-path="url(#k)"><g clip-path="url(#l)"><path fill="#FFF" d="M 22.5 37.707031 C 21.515625 37.683594 20.699219 38.460938 20.675781 39.441406 C 20.652344 40.421875 21.433594 41.238281 22.414062 41.261719 C 23.398438 41.285156 24.214844 40.507812 24.238281 39.527344 C 24.261719 38.546875 23.480469 37.730469 22.5 37.707031 Z M 22.5 37.707031"/></g></g></g><g clip-path="url(#m)"><g clip-path="url(#n)"><g clip-path="url(#o)"><path fill="#FFF" d="M 20.503906 52.75 L 19.199219 53.308594 C 20.8125 54.738281 22.917969 55.632812 25.238281 55.6875 L 28.085938 55.753906 L 39.042969 61.066406 C 39.269531 61.179688 39.5625 61.132812 39.75 60.957031 C 39.9375 60.773438 39.996094 60.492188 39.890625 60.253906 C 39.015625 58.261719 38.351562 56.855469 37.859375 55.960938 L 37.667969 55.609375 L 38.046875 55.492188 C 41.925781 54.296875 44.597656 50.765625 44.695312 46.707031 L 44.753906 44.128906 C 44.863281 39.53125 41.636719 35.625 37.289062 34.691406 C 37.445312 35.144531 37.570312 35.609375 37.664062 36.085938 C 37.664062 36.089844 37.667969 36.089844 37.671875 36.089844 C 37.667969 36.089844 37.664062 36.089844 37.664062 36.085938 C 37.804688 36.816406 37.875 37.570312 37.859375 38.34375 L 37.796875 40.921875 C 37.660156 46.683594 32.851562 51.261719 27.074219 51.125 L 24.449219 51.0625 M 35.925781 55.257812 L 35.925781 55.257812"/></g></g></g><path fill="#00C873" d="M 27.964844 28.058594 C 21.542969 28.058594 16.339844 33.261719 16.339844 39.683594 C 16.339844 46.101562 21.542969 51.308594 27.964844 51.308594 C 34.382812 51.308594 39.589844 46.101562 39.589844 39.683594 C 39.589844 33.261719 34.382812 28.058594 27.964844 28.058594"/><path fill="#00C873" d="M 18.75 27.070312 C 12.328125 27.070312 7.125 32.277344 7.125 38.695312 C 7.125 45.117188 12.328125 50.320312 18.75 50.320312 C 25.167969 50.320312 30.375 45.117188 30.375 38.695312 C 30.375 32.277344 25.167969 27.070312 18.75 27.070312"/><path fill="#00C873" d="M 17.445312 31.035156 C 11.027344 31.035156 5.820312 36.242188 5.820312 42.660156 C 5.820312 49.082031 11.027344 54.285156 17.445312 54.285156 C 23.867188 54.285156 29.070312 49.082031 29.070312 42.660156 C 29.070312 36.242188 23.867188 31.035156 17.445312 31.035156"/><path fill="#00C873" d="M 14.980469 48.292969 C 11.871094 48.292969 9.355469 50.8125 9.355469 53.917969 C 9.355469 57.027344 11.871094 59.542969 14.980469 59.542969 C 18.085938 59.542969 20.605469 57.027344 20.605469 53.917969 C 20.605469 50.8125 18.085938 48.292969 14.980469 48.292969"/><g clip-path="url(#p)"><g clip-path="url(#q)"><g clip-path="url(#r)"><path fill="#FFF" d="M 24.296875 29.128906 C 18.597656 30.851562 15.367188 36.882812 17.085938 42.582031 C 17.710938 44.640625 18.945312 46.328125 20.46875 47.628906 L 20.191406 53.125 L 25.246094 49.898438 C 26.953125 50.257812 28.75 50.332031 30.539062 49.789062 C 36.238281 48.070312 39.472656 42.039062 37.75 36.339844 C 36.027344 30.640625 29.996094 27.40625 24.296875 29.128906 Z M 24.777344 30.71875 C 29.613281 29.257812 34.699219 31.984375 36.160156 36.820312 C 37.621094 41.65625 34.894531 46.742188 30.058594 48.203125 C 28.402344 48.703125 26.726562 48.699219 25.15625 48.300781 L 24.8125 48.207031 L 22.007812 49.988281 L 22.167969 46.933594 L 21.824219 46.671875 C 20.375 45.542969 19.246094 43.988281 18.675781 42.101562 C 17.214844 37.265625 19.941406 32.179688 24.777344 30.71875 Z M 21.863281 35.066406 C 21.683594 35.121094 21.410156 35.285156 21.242188 35.660156 C 21.082031 36.027344 20.589844 36.957031 21.03125 38.410156 C 21.46875 39.855469 22.871094 40.960938 23.070312 41.121094 C 23.265625 41.277344 25.957031 43.707031 29.089844 44.160156 C 29.832031 44.265625 30.394531 44.292969 30.835938 44.308594 C 31.558594 44.332031 32.148438 44.121094 32.597656 43.90625 C 33.097656 43.660156 34 42.703125 34.023438 41.941406 C 34.039062 41.1875 33.867188 40.59375 33.753906 40.492188 C 33.652344 40.386719 33.445312 40.371094 33.128906 40.308594 C 32.8125 40.242188 31.246094 39.9375 30.972656 39.917969 C 30.691406 39.886719 30.492188 39.898438 30.394531 40.25 C 30.304688 40.601562 29.984375 41.421875 29.878906 41.664062 C 29.777344 41.910156 29.628906 41.984375 29.3125 41.917969 C 28.988281 41.851562 28.011719 41.808594 26.664062 41.117188 C 25.617188 40.582031 24.773438 39.785156 24.527344 39.535156 C 24.277344 39.285156 24.371094 39.085938 24.464844 38.902344 C 24.546875 38.726562 24.632812 38.472656 24.71875 38.257812 C 24.804688 38.046875 24.808594 37.90625 24.84375 37.683594 C 24.875 37.457031 24.78125 37.296875 24.667969 37.175781 C 24.550781 37.046875 23.5625 35.761719 23.160156 35.238281 C 22.765625 34.734375 22.558594 34.878906 22.390625 34.921875 C 22.230469 34.957031 22.042969 35.011719 21.863281 35.066406 Z M 21.863281 35.066406"/></g></g></g><path fill="#00C873" d="M 27.664062 31.035156 C 23.109375 31.035156 19.414062 34.730469 19.414062 39.285156 C 19.414062 43.84375 23.109375 47.535156 27.664062 47.535156 C 32.222656 47.535156 35.914062 43.84375 35.914062 39.285156 C 35.914062 34.730469 32.222656 31.035156 27.664062 31.035156"/><g clip-path="url(#s)"><path fill="#FFF" d="M 22.421875 44.222656 L 32.628906 44.140625 C 32.667969 44.140625 32.699219 44.097656 32.699219 44.042969 L 32.699219 42.292969 C 32.699219 42.242188 32.667969 42.195312 32.628906 42.195312 L 30.964844 42.195312 L 30.964844 42.191406 L 25.714844 42.191406 C 25.613281 42.167969 25.535156 42.054688 25.519531 41.910156 L 26.472656 40.078125 L 26.515625 39.996094 L 27.804688 37.652344 C 27.839844 37.585938 27.804688 37.496094 27.746094 37.496094 L 25.921875 37.496094 C 25.898438 37.496094 25.878906 37.511719 25.863281 37.535156 L 25.484375 38.222656 L 22.328125 43.972656 C 22.269531 44.078125 22.324219 44.222656 22.421875 44.222656 Z M 32.574219 34.722656 L 29.417969 40.46875 L 29.039062 41.160156 C 29.023438 41.183594 29.003906 41.199219 28.980469 41.199219 L 27.15625 41.199219 C 27.097656 41.199219 27.0625 41.109375 27.097656 41.042969 L 28.386719 38.695312 L 28.429688 38.617188 L 29.378906 36.78125 C 29.367188 36.640625 29.289062 36.527344 29.1875 36.503906 L 23.9375 36.503906 L 23.9375 36.496094 L 22.273438 36.496094 C 22.234375 36.496094 22.203125 36.453125 22.203125 36.402344 L 22.203125 34.648438 C 22.203125 34.597656 22.234375 34.554688 22.273438 34.554688 L 32.480469 34.472656 C 32.578125 34.472656 32.632812 34.617188 32.574219 34.722656"/></g></svg>